PathFileType	4	(X/Y/Z)	C:/Users/opensim2020/Desktop/walking_exp_matlab/subject02/subject02_trc/subject02_walking16_run_cyclic.trc																																																																																																																																																							
DataRate	CameraRate	NumFrames	NumMarkers	Units	OrigDataRate	OrigDataStartFrame	OrigNumFrames																																																																																																																																																			
100	100	4	51	mm	100	209	60																																																																																																																																																			
Frame#	Time	RTOE			LSHO			LELB			RELB			RFIN			LTHI			LKNE			RWRB			RUPA			LTIB			RASI			LANK			LTOE			RSHO			RWRA			RFRM			LASI			STRN			LFHD			RTHI			RFHD			LWRB			LFIN			LUPA			RKNE			RBHD			LFRM			C7			LWRA			RTIB			CLAV			LHEE			RANK			LBHD			RBAK			RHEE			T10			LPSI			RPSI			*39			*40			*41			*42			*43			*44			*45			*46			*47			*48			*49			*50		
		X1	Y1	Z1	X2	Y2	Z2	X3	Y3	Z3	X4	Y4	Z4	X5	Y5	Z5	X6	Y6	Z6	X7	Y7	Z7	X8	Y8	Z8	X9	Y9	Z9	X10	Y10	Z10	X11	Y11	Z11	X12	Y12	Z12	X13	Y13	Z13	X14	Y14	Z14	X15	Y15	Z15	X16	Y16	Z16	X17	Y17	Z17	X18	Y18	Z18	X19	Y19	Z19	X20	Y20	Z20	X21	Y21	Z21	X22	Y22	Z22	X23	Y23	Z23	X24	Y24	Z24	X25	Y25	Z25	X26	Y26	Z26	X27	Y27	Z27	X28	Y28	Z28	X29	Y29	Z29	X30	Y30	Z30	X31	Y31	Z31	X32	Y32	Z32	X33	Y33	Z33	X34	Y34	Z34	X35	Y35	Z35	X36	Y36	Z36	X37	Y37	Z37	X38	Y38	Z38	X39	Y39	Z39	X40	Y40	Z40	X41	Y41	Z41	X42	Y42	Z42	X43	Y43	Z43	X44	Y44	Z44	X45	Y45	Z45	X46	Y46	Z46	X47	Y47	Z47	X48	Y48	Z48	X49	Y49	Z49	X50	Y50	Z50	X51	Y51	Z51
																																																																																																																																																										
43	0.42	223.34241	84.20273	145.36125	-30.04227	1500.67322	-125.70249	127.68656	1255.31323	-294.76901	-359.39642	1299.04163	308.96811	-174.80228	1070.68811	341.88589	-188.07201	660.13672	-135.78415	-275.04956	487.15265	-102.41057	-237.30624	1072.16357	324.21014	-273.12241	1409.25769	255.71053	-460.16367	434.98111	-90.34335	-30.72034	982.21222	146.78691	-640.83893	323.2789	-49.68531	-682.26147	166.91602	-71.26349	-121.70117	1493.76343	192.03815	-200.02271	1109.00586	299.11273	-299.21179	1189.36914	323.76852	-28.50937	970.58801	-90.55511	20.40146	1266.89868	55.83513	14.09948	1725.63049	-23.40274	-8.60771	684.6745	234.78995	7.06989	1712.93982	120.77486	196.25319	1170.23718	-52.30943	193.95221	1162.98071	16.97141	41.99506	1372.48401	-259.28241	81.95101	502.49414	185.37909	-124.6636	1618.69836	104.98911	173.76718	1199.25488	-172.28409	-139.50803	1511.177	8.82909	151.76031	1200.25793	-35.22594	59.57735	314.61322	186.3045	-8.5012	1442.99048	42.31637	-650.93329	341.70792	11.19698	64.40571	119.88087	143.56281	-105.48758	1635.20166	-36.52561	-225.77721	1356.34619	43.33771	39.20453	62.56492	83.01865	-223.76709	1254.52173	-1.80777	-226.33395	1052.99365	-22.50719	-236.07983	1053.72424	95.43796	NaN	NaN	NaN	2845.9541	1034.3269	-3356.88232	NaN	NaN	NaN	NaN	NaN	NaN	NaN	NaN	NaN	NaN	NaN	NaN	NaN	NaN	NaN	NaN	NaN	NaN	NaN	NaN	NaN	NaN	NaN	NaN	-100.84261	1780.94519	56.65873	NaN	NaN	NaN
44	0.43	229.61012	65.73926	135.4223	7.84784	1495.68005	-121.58099	155.46495	1251.71814	-301.54364	-315.37231	1278.73962	312.00659	-121.76398	1059.10449	343.49411	-134.85268	649.47839	-134.36055	-215.46091	477.52765	-101.14235	-184.5787	1057.89294	326.67914	-233.52812	1391.89197	260.96851	-402.12091	435.7912	-88.4434	8.33521	979.01019	150.94127	-587.7702	334.06094	-48.22798	-635.93042	180.55498	-68.21361	-83.49523	1484.354	198.414	-149.0867	1095.86047	300.34546	-251.02927	1171.73413	326.15973	13.02965	966.53064	-87.42776	58.1884	1260.67151	57.95572	50.71268	1720.44641	-20.14277	32.10658	682.14935	231.04366	44.90868	1708.92212	124.19019	236.31633	1133.76636	-76.24439	237.40527	1115.84045	-8.43884	74.37231	1368.80042	-258.51736	114.52967	494.84912	184.91403	-86.24111	1613.62585	110.17274	207.23314	1180.13733	-189.59238	-100.51032	1507.07251	14.55413	193.56067	1161.89624	-52.30105	79.48492	308.50473	183.60617	29.90066	1437.5802	46.50751	-596.69733	353.40704	12.54782	72.65235	112.87173	138.29189	-68.19563	1629.08667	-31.45544	-187.8277	1350.77368	47.51922	44.03892	58.55418	79.25931	-186.40886	1250.70166	0.47288	-186.40619	1047.27673	-22.81139	-197.8243	1047.78186	94.42133	NaN	NaN	NaN	2846.04053	1034.33936	-3356.66113	NaN	NaN	NaN	NaN	NaN	NaN	NaN	NaN	NaN	NaN	NaN	NaN	NaN	NaN	NaN	NaN	NaN	NaN	NaN	NaN	NaN	NaN	NaN	NaN	-63.97443	1775.45398	60.43134	NaN	NaN	NaN
45	0.44	239.83093	45.4323	126.32661	46.00279	1489.49133	-117.16962	183.56062	1247.71838	-307.69699	-269.99109	1256.85046	315.13306	-66.15022	1047.48401	344.27667	-81.51913	638.31348	-132.7955	-154.79672	467.3313	-99.80757	-129.4109	1043.66748	328.56448	-193.09543	1373.15588	266.67578	-341.38217	434.68054	-87.12965	47.36573	974.91278	155.66675	-531.70178	342.66095	-47.44606	-582.97522	191.34656	-65.66897	-44.84331	1474.00171	205.0954	-96.05089	1082.90295	301.53568	-200.70667	1153.44263	328.45786	54.19033	961.99487	-83.93768	96.14806	1253.40942	59.89634	87.13961	1714.81873	-17.13316	72.50632	678.67816	233.22285	82.92605	1704.36035	127.32256	274.23621	1098.07202	-104.51559	277.76929	1069.29712	-40.6712	108.18672	1364.12366	-257.14603	141.83948	485.46396	185.14735	-47.71941	1607.97888	115.43	239.66902	1161.71704	-208.17802	-61.92439	1502.15869	20.19648	232.55698	1122.70203	-74.86111	99.32242	299.67789	182.08502	68.38509	1431.1427	50.62521	-540.44495	363.14178	13.20262	85.63273	102.74026	135.94814	-31.17393	1622.49548	-26.63127	-149.94746	1344.42542	52.17768	52.59311	50.98315	78.37765	-148.10027	1245.68274	3.47527	-146.70979	1039.87012	-23.63931	-159.38287	1040.26013	93.09864	NaN	NaN	NaN	2846.0708	1034.48157	-3356.79248	NaN	NaN	NaN	NaN	NaN	NaN	NaN	NaN	NaN	NaN	NaN	NaN	NaN	NaN	NaN	NaN	NaN	NaN	NaN	NaN	NaN	NaN	NaN	NaN	-27.31897	1769.45398	64.01812	NaN	NaN	NaN
46	0.45	253.62199	39.54546	126.63941	84.1954	1482.2207	-112.74641	211.84657	1243.19043	-312.90402	-222.85559	1233.97852	318.80356	-8.31686	1036.94763	343.9711	-27.74816	626.78882	-131.05107	-92.9357	457.68619	-99.31722	-71.60735	1029.85229	329.38202	-151.17461	1353.36157	273.19284	-278.35364	431.94238	-86.2218	86.51183	969.69287	160.58649	-472.86591	348.76639	-46.42558	-523.65552	198.7175	-64.20222	-5.7353	1463.31287	212.14534	-40.68244	1070.74243	301.845	-148.52386	1134.4845	330.40536	94.64071	956.6297	-81.49501	134.33836	1245.29871	61.50886	123.5588	1709.01953	-14.3764	102.2662	669.20618	236.51384	121.0185	1699.30396	130.0891	309.06381	1064.24475	-137.53029	315.17004	1026.14246	-79.01656	142.53511	1358.16943	-255.57289	163.72353	471.97449	184.51859	-9.00689	1601.83008	120.11756	270.9845	1143.79041	-228.32043	-23.48351	1496.30176	25.6376	268.44107	1084.47693	-102.62094	119.28146	285.66708	182.8443	106.83092	1423.99927	54.63098	-483.2742	370.53244	14.03712	101.11868	91.49271	130.32455	5.79937	1615.76831	-22.1402	-111.77882	1337.23425	57.26543	59.15599	38.49763	73.27265	-110.08174	1239.97461	6.70501	-106.80091	1030.69751	-24.46276	-120.75185	1031.28149	91.65067	NaN	NaN	NaN	2845.95703	1034.54773	-3356.77563	NaN	NaN	NaN	NaN	NaN	NaN	NaN	NaN	NaN	NaN	NaN	NaN	NaN	NaN	NaN	NaN	NaN	NaN	NaN	NaN	NaN	NaN	NaN	NaN	9.56602	1763.33386	67.86578	NaN	NaN	NaN
